<svg xmlns="http://www.w3.org/2000/svg" version="1.1" xmlns:xlink="http://www.w3.org/1999/xlink" xmlns:svgjs="http://svgjs.dev/svgjs" width="1000" height="1000" viewBox="0 0 1000 1000"><g transform="matrix(1,0,0,1,0,0)"><svg viewBox="0 0 280 280" data-background-color="#ffffff" preserveAspectRatio="xMidYMid meet" height="1000" width="1000" xmlns="http://www.w3.org/2000/svg" xmlns:xlink="http://www.w3.org/1999/xlink"><g id="tight-bounds" transform="matrix(1,0,0,1,0,0)"><svg viewBox="0 0 280 280" height="280" width="280"><g><svg viewBox="0 0 280 280" height="280" width="280"><g transform="matrix(1,0,0,1,60.80404050710668,100.15849024281258)"><svg viewBox="0 0 158.39191898578665 79.68301951437483" height="79.68301951437483" width="158.39191898578665"><g><svg viewBox="0 0 158.39191898578665 79.68301951437483" height="79.68301951437483" width="158.39191898578665"><g><svg viewBox="0 0 158.39191898578665 79.68301951437483" height="79.68301951437483" width="158.39191898578665"><g><svg viewBox="0 0 158.39191898578665 79.68301951437483" height="79.68301951437483" width="158.39191898578665"><g id="textblocktransform"><svg viewBox="0 0 158.39191898578665 79.68301951437483" height="79.68301951437483" width="158.39191898578665" id="textblock"><g><svg viewBox="0 0 158.39191898578665 79.68301951437483" height="79.68301951437483" width="158.39191898578665"><g transform="matrix(1,0,0,1,0,0)"><svg width="158.39191898578665" viewBox="-2.8499999046325684 -36.79999923706055 81.29999542236328 40.89999771118164" height="79.68301951437483" data-palette-color="#037a1b"><path d="M35.55-4.2L35.55-4.2Q35.55-2.25 32.9-1.6L32.9-1.6Q32.75-1.6 32.75-1.8 32.75-2 33.1-2.25L33.1-2.25Q34.1-3 34.1-3.9L34.1-3.9Q34.1-5.65 31.3-6.45L31.3-6.45Q27.6-1.9 21.03 1.1 14.45 4.1 9.35 4.1 4.25 4.1 4.25 2L4.25 2Q4.25 0.25 7.73-2.18 11.2-4.6 16.68-6.43 22.15-8.25 27-8.25L27-8.25Q29.4-8.25 31.1-7.9L31.1-7.9Q32.65-10.65 32.65-13.65L32.65-13.65Q32.65-15.4 31.1-16.57 29.55-17.75 26.95-17.75 24.35-17.75 22-16.7L22-16.7Q21.5-16.35 21.2-16.35L21.2-16.35Q20.65-16.35 20.65-16.63 20.65-16.9 21.4-17.3L21.4-17.3Q22.5-17.65 25.63-20 28.75-22.35 31.73-25.73 34.7-29.1 34.7-31.4L34.7-31.4Q34.7-35.15 26.6-35.15L26.6-35.15Q20.9-35.15 14.48-32.83 8.05-30.5 3.65-26.78-0.75-23.05-0.75-19.5L-0.75-19.5Q-0.75-17.6 1.6-17.6L1.6-17.6Q4.95-17.6 8.2-19.28 11.45-20.95 16.7-25.35L16.7-25.35Q17.35-26.1 17.6-26.1L17.6-26.1Q18.15-26.1 18.15-25.75L18.15-25.75Q18.15-25.65 17.8-25.05L17.8-25.05Q16.5-23.75 14.15-21.9 11.8-20.05 9.8-18.8 7.8-17.55 5.28-16.55 2.75-15.55 0.7-15.55L0.7-15.55Q-2.85-15.55-2.85-18.7L-2.85-18.7Q-2.85-22.8 2.5-27.13 7.85-31.45 15.08-34.13 22.3-36.8 28-36.8L28-36.8Q37.05-36.8 37.05-32.35L37.05-32.35Q37.05-29.1 32.73-24.68 28.4-20.25 24.95-18.6L24.95-18.6Q26.5-18.9 27.85-18.9L27.85-18.9Q31-18.9 32.7-17.7 34.4-16.5 34.4-14.45L34.4-14.45Q34.4-10.95 32.15-7.6L32.15-7.6Q35.55-6.6 35.55-4.2ZM26.45-7.05L26.45-7.05Q22.65-7.05 17.85-5.45 13.05-3.85 9.83-1.8 6.6 0.25 6.6 1.53 6.6 2.8 9.68 2.8 12.75 2.8 16.43 1.83 20.1 0.85 24.13-1.43 28.15-3.7 30.3-6.7L30.3-6.7Q28.4-7.05 26.45-7.05ZM26.75-32.15L27-31.95Q27-31.8 21.18-21.75 15.35-11.7 12.6-7.1L12.6-7.1Q12.3-6.45 11.5-6.1 10.7-5.75 10.28-5.75 9.85-5.75 9.85-5.98 9.85-6.2 13.55-12.43 17.25-18.65 20.93-24.8 24.6-30.95 24.5-31L24.5-31Q24.8-31.5 25.5-31.75L25.5-31.75 26.75-32.15ZM41.3-0.75Q41.3-0.2 40.82 0.3 40.35 0.8 39.77 0.8 39.2 0.8 38.92 0.55 38.65 0.3 38.62-0.3 38.6-0.9 39.15-1.3 39.7-1.7 40.2-1.7L40.2-1.7Q41.3-1.7 41.3-0.75L41.3-0.75ZM70.67-7.68Q67.3-3.85 63.07-1.35 58.85 1.15 54.97 1.15 51.1 1.15 49.37-1.03 47.65-3.2 47.65-6.2 47.65-9.2 48.67-12.65 49.7-16.1 51.75-19.8 53.8-23.5 56.55-26.63 59.3-29.75 63.17-31.78 67.05-33.8 71.25-33.8L71.25-33.8Q78.45-33.8 78.45-25.6L78.45-25.6Q78.45-21.2 76.25-16.35 74.05-11.5 70.67-7.68ZM76.65-26.85L76.65-26.85Q76.65-28.8 75.9-30.15 75.15-31.5 74.05-32L74.05-32Q72.2-32.8 71-32.8L71-32.8Q68.15-32.8 65.35-31.4 62.55-30 60.27-27.7 58-25.4 56.02-22.5 54.05-19.6 52.7-16.6L52.7-16.6Q49.85-10.2 49.85-5.8L49.85-5.8Q49.85-1.35 52.35-0.3L52.35-0.3Q53.55 0.15 55.35 0.15L55.35 0.15Q59.7 0.15 64.8-4.42 69.9-9 73.27-15.4 76.65-21.8 76.65-26.85Z" opacity="1" transform="matrix(1,0,0,1,0,0)" fill="#037a1b" class="wordmark-text-0" data-fill-palette-color="primary" id="text-0"></path></svg></g></svg></g></svg></g></svg></g></svg></g></svg></g></svg></g><g><path d="M28.068 76.412v0c0.959 0.385 1.336 1.291 1.132 2.72v0c-0.03 0.075-0.095 0.092-0.194 0.052-0.1-0.04-0.174-0.171-0.222-0.393v0c-0.17-0.639-0.476-1.047-0.919-1.224v0c-0.859-0.345-1.761 0.092-2.705 1.31v0c1.502 2.706 2.344 5.967 2.527 9.784 0.176 3.814-0.238 6.973-1.242 9.476-1.001 2.497-2.016 3.539-3.043 3.127v0c-0.859-0.345-1.542-1.605-2.05-3.782-0.505-2.183-0.667-4.796-0.488-7.839 0.182-3.049 0.75-5.763 1.704-8.141v0c0.472-1.177 0.962-2.147 1.472-2.911v0c-1.046-1.301-2.304-2.247-3.774-2.837v0c-0.859-0.345-1.727-0.252-2.605 0.278-0.886 0.534-1.584 1.435-2.093 2.706-0.512 1.276-0.741 2.594-0.686 3.953v0c0.068 0.316 0.074 0.546 0.016 0.689v0c-0.11 0.274-0.23 0.385-0.361 0.332-0.137-0.055-0.23-0.309-0.279-0.762v0c0.047-0.603-0.199-1.901-0.736-3.895-0.537-1.994-1.341-4.054-2.411-6.181-1.072-2.121-2.171-3.408-3.297-3.86v0c-1.837-0.737-3.552 0.881-5.145 4.853v0c-1.121 2.795-1.744 5.997-1.869 9.604-0.124 3.607 0.292 6.857 1.251 9.749 0.966 2.888 2.318 4.681 4.055 5.378v0c0.934 0.375 1.632-0.014 2.093-1.166v0c0.659-1.644 0.898-3.427 0.716-5.35-0.183-1.923-0.838-4.604-1.968-8.042v0c-0.237-0.471-0.332-0.766-0.285-0.884v0c0.11-0.274 0.252-0.376 0.426-0.306v0c0.05 0.02 0.186 0.176 0.409 0.467v0c0.38 0.89 0.793 2.096 1.237 3.619 0.447 1.516 0.78 2.886 0.998 4.107 0.222 1.231 0.327 2.563 0.316 3.997-0.003 1.43-0.206 2.649-0.611 3.658v0c-0.697 1.737-1.817 2.296-3.361 1.677v0c-2.011-0.807-3.549-2.945-4.615-6.415-1.072-3.473-1.554-7.244-1.446-11.313 0.113-4.067 0.731-7.498 1.852-10.294v0c1.781-4.439 3.76-6.222 5.939-5.347v0c1.594 0.639 3.051 2.456 4.373 5.45 1.318 2.986 2.041 5.488 2.171 7.506v0c0.155-0.82 0.366-1.562 0.634-2.228v0c0.619-1.544 1.392-2.615 2.318-3.212 0.917-0.593 1.88-0.688 2.889-0.283v0c1.718 0.689 3.175 1.913 4.371 3.672v0c1.161-1.471 2.33-1.971 3.506-1.499zM23.291 82.269v0c-0.747 1.862-1.2 4.126-1.36 6.794-0.159 2.668-0.055 4.994 0.313 6.977 0.374 1.986 0.873 3.104 1.496 3.354 0.629 0.252 1.245-0.375 1.849-1.882 0.604-1.507 1.029-3.259 1.274-5.256 0.242-1.992 0.202-4.198-0.121-6.619-0.323-2.421-1.011-4.453-2.064-6.097v0c-0.54 0.86-1.003 1.77-1.387 2.729zM4.918 74.639l0.224-0.127c0.068 0.027 1.995 2.459 5.78 7.295 3.778 4.833 6.527 8.378 8.245 10.636v0c0.26 0.271 0.399 0.637 0.415 1.099 0.011 0.46-0.026 0.795-0.111 1.007-0.082 0.205-0.18 0.286-0.292 0.24-0.106-0.042-1.324-1.583-3.654-4.62-2.321-3.042-4.628-6.066-6.919-9.074-2.295-3.017-3.465-4.505-3.511-4.466v0c-0.185-0.241-0.272-0.557-0.259-0.949v0z" fill="#50a060" data-fill-palette-color="accent"></path><path d="M140.984 12.097c0 0.288-0.125 0.567-0.373 0.834-0.255 0.261-0.534 0.392-0.836 0.392-0.302 0-0.527-0.068-0.674-0.202-0.147-0.128-0.228-0.352-0.241-0.674-0.013-0.315 0.128-0.577 0.424-0.785 0.289-0.214 0.564-0.321 0.825-0.321v0c0.584 0.001 0.875 0.252 0.875 0.756z" fill="#50a060" data-fill-palette-color="accent"></path><path d="M259.782 98.113c-2.478-1.072-4.689-2.467-6.635-4.184-1.946-1.717-3.235-3.549-3.866-5.495-0.631-1.946-0.539-3.531 0.277-4.755 0.81-1.222 1.967-2.077 3.473-2.565 1.512-0.49 3.217-0.758 5.114-0.802 1.903-0.046 3.95 0.143 6.14 0.568 2.196 0.423 4.304 1.072 6.322 1.948 2.019 0.876 3.854 2.121 5.507 3.736 1.646 1.617 2.811 3.482 3.496 5.593v0c1.173 3.618-0.301 6.095-4.423 7.433v0c-2.208 0.716-4.709 0.917-7.505 0.604-2.798-0.32-5.431-1.013-7.9-2.081zM275.694 97.923v0c0.976-0.317 1.745-0.774 2.305-1.371 0.554-0.596 0.866-1.212 0.935-1.848v0c0.102-1.056 0.055-1.886-0.142-2.493v0c-0.464-1.429-1.275-2.735-2.435-3.917-1.157-1.176-2.5-2.151-4.027-2.925-1.525-0.768-3.179-1.409-4.961-1.924-1.778-0.524-3.532-0.878-5.264-1.065v0c-3.682-0.393-6.626-0.231-8.834 0.486v0c-2.24 0.726-3.417 1.803-3.532 3.229v0c-0.033 0.681 0.097 1.474 0.391 2.381v0c0.708 2.182 2.629 4.182 5.765 6 3.129 1.82 6.576 3.054 10.34 3.702 3.766 0.654 6.919 0.569 9.459-0.255z" fill="#50a060" data-fill-palette-color="accent"></path><path d="M24.364 195.552v0c-0.988 0.401-1.92-0.002-2.794-1.211v0c-0.03-0.075 0.007-0.133 0.113-0.176 0.099-0.04 0.247 0.001 0.442 0.124v0c0.592 0.353 1.115 0.438 1.569 0.254v0c0.889-0.361 1.247-1.332 1.075-2.914v0c-3.068-0.94-6.04-2.767-8.915-5.479-2.869-2.715-4.829-5.366-5.88-7.951-1.05-2.585-1.044-4.094 0.019-4.526v0c0.889-0.361 2.304 0.092 4.245 1.36 1.945 1.259 3.943 3.086 5.995 5.482 2.054 2.402 3.58 4.83 4.578 7.286v0c0.495 1.218 0.826 2.293 0.994 3.223v0c1.713 0.224 3.33 0.027 4.853-0.592v0c0.883-0.358 1.462-1.054 1.738-2.085 0.279-1.025 0.15-2.197-0.385-3.514-0.535-1.318-1.312-2.464-2.331-3.441v0c-0.275-0.178-0.444-0.345-0.507-0.5v0c-0.114-0.28-0.102-0.447 0.034-0.503 0.143-0.058 0.392 0.065 0.748 0.37v0c0.405 0.48 1.523 1.271 3.353 2.374 1.837 1.1 3.915 2.055 6.236 2.865 2.323 0.816 4.068 0.987 5.236 0.512v0c1.896-0.77 2.009-3.209 0.341-7.317v0c-1.171-2.884-3.006-5.715-5.504-8.495-2.504-2.777-5.149-4.896-7.935-6.356-2.796-1.464-5.091-1.831-6.888-1.101v0c-0.963 0.391-1.204 1.18-0.721 2.368v0c0.692 1.703 1.793 3.203 3.305 4.5 1.52 1.301 3.936 2.829 7.248 4.582v0c0.513 0.175 0.796 0.328 0.848 0.459v0c0.114 0.28 0.08 0.456-0.1 0.53v0c-0.05 0.02-0.263 0.002-0.641-0.055v0c-0.926-0.391-2.101-0.993-3.524-1.805-1.421-0.806-2.651-1.588-3.69-2.346-1.045-0.756-2.083-1.67-3.112-2.743-1.023-1.076-1.746-2.133-2.168-3.171v0c-0.73-1.796-0.299-3.017 1.292-3.663v0c2.082-0.846 4.767-0.358 8.056 1.463 3.294 1.819 6.363 4.283 9.204 7.393 2.842 3.11 4.849 6.11 6.023 9.001v0c1.86 4.58 1.663 7.329-0.593 8.245v0c-1.647 0.669-4.037 0.365-7.169-0.911-3.128-1.285-5.467-2.63-7.015-4.036v0c0.473 0.72 0.849 1.422 1.127 2.105v0c0.649 1.597 0.844 2.951 0.586 4.063-0.261 1.105-0.91 1.868-1.948 2.29v0c-1.771 0.719-3.736 0.855-5.895 0.407v0c0.19 1.929-0.325 3.14-1.543 3.635zM23.727 187.752v0c-0.783-1.927-2.074-3.94-3.876-6.039-1.795-2.102-3.543-3.759-5.245-4.972-1.702-1.213-2.876-1.688-3.522-1.426-0.646 0.263-0.653 1.174-0.019 2.734 0.631 1.554 1.571 3.163 2.819 4.828 1.255 1.663 2.871 3.28 4.848 4.851 1.984 1.569 3.955 2.589 5.913 3.061v0c-0.211-1.037-0.517-2.049-0.918-3.037zM42.895 180.238l-0.073 0.247c-0.081 0.033-3.266-0.393-9.555-1.278-6.289-0.885-10.882-1.55-13.778-1.995v0c-0.39-0.015-0.758-0.192-1.105-0.528-0.338-0.333-0.55-0.606-0.636-0.817-0.088-0.218-0.077-0.349 0.035-0.395 0.112-0.045 2.128 0.229 6.047 0.824 3.911 0.591 7.805 1.185 11.682 1.782 3.868 0.594 5.805 0.86 5.81 0.801v0c0.318 0.052 0.611 0.23 0.879 0.533v0z" fill="#50a060" data-fill-palette-color="accent"></path><path d="M141.092 267.39c0 0.302-0.13 0.587-0.391 0.855-0.255 0.275-0.54 0.413-0.855 0.414-0.315 0-0.547-0.067-0.694-0.201-0.154-0.141-0.239-0.372-0.253-0.694-0.014-0.329 0.13-0.604 0.432-0.825 0.302-0.222 0.59-0.333 0.865-0.333v0c0.597-0.001 0.896 0.261 0.896 0.784z" fill="#50a060" data-fill-palette-color="accent"></path><path d="M258.665 171.069c1.417 2.403 2.417 4.917 2.999 7.542 0.585 2.618 0.548 4.935-0.11 6.95-0.658 2.015-1.7 3.284-3.127 3.805-1.422 0.531-2.911 0.542-4.468 0.034-1.562-0.51-3.152-1.326-4.768-2.446-1.619-1.114-3.218-2.518-4.796-4.213-1.578-1.694-2.943-3.522-4.094-5.486-1.16-1.959-1.937-4.118-2.33-6.477-0.396-2.352-0.237-4.622 0.477-6.809v0c1.222-3.743 3.963-4.919 8.223-3.528v0c2.289 0.748 4.506 2.106 6.649 4.077 2.152 1.966 3.934 4.15 5.345 6.551zM245.236 161.528v0c-1.014-0.331-1.935-0.417-2.764-0.256-0.828 0.16-1.467 0.484-1.916 0.972v0c-0.729 0.828-1.195 1.554-1.399 2.179v0c-0.483 1.479-0.599 3.065-0.346 4.756 0.252 1.691 0.784 3.326 1.595 4.903 0.807 1.569 1.799 3.114 2.975 4.634 1.17 1.518 2.421 2.883 3.754 4.095v0c2.843 2.573 5.407 4.232 7.69 4.977v0c2.315 0.756 3.959 0.573 4.932-0.549v0c0.434-0.55 0.803-1.294 1.109-2.231v0c0.737-2.257 0.35-5.101-1.163-8.53-1.512-3.429-3.643-6.563-6.392-9.402-2.756-2.841-5.448-4.69-8.075-5.548z" fill="#50a060" data-fill-palette-color="accent"></path><path d="M0.236 134.703c0-6.152 4.987-11.139 11.139-11.14 6.152 0 11.139 4.987 11.139 11.14 0 6.152-4.987 11.139-11.139 11.139-6.152 0-11.139-4.987-11.139-11.139z" fill="#50a060" data-fill-palette-color="accent"></path><path d="M253.805 134.703c0-6.152 4.987-11.139 11.139-11.14 6.152 0 11.139 4.987 11.139 11.14 0 6.152-4.987 11.139-11.139 11.139-6.152 0-11.139-4.987-11.139-11.139z" fill="#50a060" data-fill-palette-color="accent"></path></g></svg></g><defs></defs></svg><rect width="280" height="280" fill="none" stroke="none" visibility="hidden"></rect></g></svg></g></svg>